<mxfile host="app.diagrams.net" agent="Mozilla/5.0 (Windows NT 10.0; Win64; x64) AppleWebKit/537.36 (KHTML, like Gecko) Chrome/133.0.0.0 Safari/537.36 Edg/133.0.0.0" version="26.0.11">
  <diagram name="Page-1" id="c4acf3e9-155e-7222-9cf6-157b1a14988f">
    <mxGraphModel dx="1869" dy="1734" grid="1" gridSize="10" guides="1" tooltips="1" connect="1" arrows="1" fold="1" page="1" pageScale="1" pageWidth="827" pageHeight="1169" background="none" math="0" shadow="0">
      <root>
        <mxCell id="0" />
        <mxCell id="1" parent="0" />
        <mxCell id="rWbBaB_tXVkeBxF61D8e-1" value="Commands" style="swimlane;fontStyle=1;align=center;verticalAlign=top;childLayout=stackLayout;horizontal=1;startSize=26;horizontalStack=0;resizeParent=1;resizeParentMax=0;resizeLast=0;collapsible=1;marginBottom=0;whiteSpace=wrap;html=1;" parent="1" vertex="1">
          <mxGeometry x="360" y="266" width="160" height="120" as="geometry" />
        </mxCell>
        <mxCell id="rWbBaB_tXVkeBxF61D8e-3" value="" style="line;strokeWidth=1;fillColor=none;align=left;verticalAlign=middle;spacingTop=-1;spacingLeft=3;spacingRight=3;rotatable=0;labelPosition=right;points=[];portConstraint=eastwest;strokeColor=inherit;" parent="rWbBaB_tXVkeBxF61D8e-1" vertex="1">
          <mxGeometry y="26" width="160" height="8" as="geometry" />
        </mxCell>
        <mxCell id="rWbBaB_tXVkeBxF61D8e-4" value="new_bkng()&lt;div&gt;add_bkng()&lt;/div&gt;&lt;div&gt;new_client()&lt;/div&gt;&lt;div&gt;create_client()&lt;/div&gt;&lt;div&gt;show_bkngs()&lt;/div&gt;" style="text;strokeColor=none;fillColor=none;align=left;verticalAlign=top;spacingLeft=4;spacingRight=4;overflow=hidden;rotatable=0;points=[[0,0.5],[1,0.5]];portConstraint=eastwest;whiteSpace=wrap;html=1;" parent="rWbBaB_tXVkeBxF61D8e-1" vertex="1">
          <mxGeometry y="34" width="160" height="86" as="geometry" />
        </mxCell>
        <mxCell id="rWbBaB_tXVkeBxF61D8e-5" value="Calendar commands" style="swimlane;fontStyle=1;align=center;verticalAlign=top;childLayout=stackLayout;horizontal=1;startSize=26;horizontalStack=0;resizeParent=1;resizeParentMax=0;resizeLast=0;collapsible=1;marginBottom=0;whiteSpace=wrap;html=1;" parent="1" vertex="1">
          <mxGeometry x="585" y="475" width="150" height="80" as="geometry" />
        </mxCell>
        <mxCell id="rWbBaB_tXVkeBxF61D8e-7" value="" style="line;strokeWidth=1;fillColor=none;align=left;verticalAlign=middle;spacingTop=-1;spacingLeft=3;spacingRight=3;rotatable=0;labelPosition=right;points=[];portConstraint=eastwest;strokeColor=inherit;" parent="rWbBaB_tXVkeBxF61D8e-5" vertex="1">
          <mxGeometry y="26" width="150" height="8" as="geometry" />
        </mxCell>
        <mxCell id="rWbBaB_tXVkeBxF61D8e-8" value="add_bkng()&lt;div&gt;submit_btn()&lt;/div&gt;" style="text;strokeColor=none;fillColor=none;align=left;verticalAlign=top;spacingLeft=4;spacingRight=4;overflow=hidden;rotatable=0;points=[[0,0.5],[1,0.5]];portConstraint=eastwest;whiteSpace=wrap;html=1;" parent="rWbBaB_tXVkeBxF61D8e-5" vertex="1">
          <mxGeometry y="34" width="150" height="46" as="geometry" />
        </mxCell>
        <mxCell id="rWbBaB_tXVkeBxF61D8e-9" value="Login" style="swimlane;fontStyle=1;align=center;verticalAlign=top;childLayout=stackLayout;horizontal=1;startSize=26;horizontalStack=0;resizeParent=1;resizeParentMax=0;resizeLast=0;collapsible=1;marginBottom=0;whiteSpace=wrap;html=1;" parent="1" vertex="1">
          <mxGeometry x="290" y="-220" width="160" height="120" as="geometry" />
        </mxCell>
        <mxCell id="rWbBaB_tXVkeBxF61D8e-11" value="" style="line;strokeWidth=1;fillColor=none;align=left;verticalAlign=middle;spacingTop=-1;spacingLeft=3;spacingRight=3;rotatable=0;labelPosition=right;points=[];portConstraint=eastwest;strokeColor=inherit;" parent="rWbBaB_tXVkeBxF61D8e-9" vertex="1">
          <mxGeometry y="26" width="160" height="8" as="geometry" />
        </mxCell>
        <mxCell id="rWbBaB_tXVkeBxF61D8e-12" value="login_window()&lt;div&gt;guest_login()&lt;/div&gt;&lt;div&gt;create_account()&lt;/div&gt;&lt;div&gt;saveaccount()&lt;/div&gt;&lt;div&gt;validate_login()&lt;/div&gt;" style="text;strokeColor=none;fillColor=none;align=left;verticalAlign=top;spacingLeft=4;spacingRight=4;overflow=hidden;rotatable=0;points=[[0,0.5],[1,0.5]];portConstraint=eastwest;whiteSpace=wrap;html=1;" parent="rWbBaB_tXVkeBxF61D8e-9" vertex="1">
          <mxGeometry y="34" width="160" height="86" as="geometry" />
        </mxCell>
        <mxCell id="rWbBaB_tXVkeBxF61D8e-13" value="Main menu" style="swimlane;fontStyle=1;align=center;verticalAlign=top;childLayout=stackLayout;horizontal=1;startSize=26;horizontalStack=0;resizeParent=1;resizeParentMax=0;resizeLast=0;collapsible=1;marginBottom=0;whiteSpace=wrap;html=1;" parent="1" vertex="1">
          <mxGeometry x="170" y="-30" width="160" height="100" as="geometry" />
        </mxCell>
        <mxCell id="rWbBaB_tXVkeBxF61D8e-15" value="" style="line;strokeWidth=1;fillColor=none;align=left;verticalAlign=middle;spacingTop=-1;spacingLeft=3;spacingRight=3;rotatable=0;labelPosition=right;points=[];portConstraint=eastwest;strokeColor=inherit;" parent="rWbBaB_tXVkeBxF61D8e-13" vertex="1">
          <mxGeometry y="26" width="160" height="8" as="geometry" />
        </mxCell>
        <mxCell id="rWbBaB_tXVkeBxF61D8e-16" value="home()&lt;div&gt;about_section()&lt;/div&gt;&lt;div&gt;contact_us()&lt;/div&gt;&lt;div&gt;faq()&lt;/div&gt;" style="text;strokeColor=none;fillColor=none;align=left;verticalAlign=top;spacingLeft=4;spacingRight=4;overflow=hidden;rotatable=0;points=[[0,0.5],[1,0.5]];portConstraint=eastwest;whiteSpace=wrap;html=1;" parent="rWbBaB_tXVkeBxF61D8e-13" vertex="1">
          <mxGeometry y="34" width="160" height="66" as="geometry" />
        </mxCell>
        <mxCell id="rWbBaB_tXVkeBxF61D8e-17" value="Change password" style="swimlane;fontStyle=1;align=center;verticalAlign=top;childLayout=stackLayout;horizontal=1;startSize=26;horizontalStack=0;resizeParent=1;resizeParentMax=0;resizeLast=0;collapsible=1;marginBottom=0;whiteSpace=wrap;html=1;" parent="1" vertex="1">
          <mxGeometry x="-30" y="-200" width="160" height="100" as="geometry" />
        </mxCell>
        <mxCell id="rWbBaB_tXVkeBxF61D8e-19" value="" style="line;strokeWidth=1;fillColor=none;align=left;verticalAlign=middle;spacingTop=-1;spacingLeft=3;spacingRight=3;rotatable=0;labelPosition=right;points=[];portConstraint=eastwest;strokeColor=inherit;" parent="rWbBaB_tXVkeBxF61D8e-17" vertex="1">
          <mxGeometry y="26" width="160" height="8" as="geometry" />
        </mxCell>
        <mxCell id="rWbBaB_tXVkeBxF61D8e-20" value="newpassword()&lt;div&gt;check_password()&lt;/div&gt;&lt;div&gt;update()&lt;/div&gt;&lt;div&gt;hash_password()&lt;/div&gt;" style="text;strokeColor=none;fillColor=none;align=left;verticalAlign=top;spacingLeft=4;spacingRight=4;overflow=hidden;rotatable=0;points=[[0,0.5],[1,0.5]];portConstraint=eastwest;whiteSpace=wrap;html=1;" parent="rWbBaB_tXVkeBxF61D8e-17" vertex="1">
          <mxGeometry y="34" width="160" height="66" as="geometry" />
        </mxCell>
        <mxCell id="rWbBaB_tXVkeBxF61D8e-21" value="Calendar db" style="swimlane;fontStyle=1;align=center;verticalAlign=top;childLayout=stackLayout;horizontal=1;startSize=26;horizontalStack=0;resizeParent=1;resizeParentMax=0;resizeLast=0;collapsible=1;marginBottom=0;whiteSpace=wrap;html=1;" parent="1" vertex="1">
          <mxGeometry x="580" y="220" width="160" height="180" as="geometry" />
        </mxCell>
        <mxCell id="rWbBaB_tXVkeBxF61D8e-23" value="" style="line;strokeWidth=1;fillColor=none;align=left;verticalAlign=middle;spacingTop=-1;spacingLeft=3;spacingRight=3;rotatable=0;labelPosition=right;points=[];portConstraint=eastwest;strokeColor=inherit;" parent="rWbBaB_tXVkeBxF61D8e-21" vertex="1">
          <mxGeometry y="26" width="160" height="8" as="geometry" />
        </mxCell>
        <mxCell id="rWbBaB_tXVkeBxF61D8e-24" value="create()&lt;div&gt;insert_client()&lt;/div&gt;&lt;div&gt;insert_bkng()&lt;/div&gt;&lt;div&gt;get_bkngs()&lt;/div&gt;&lt;div&gt;get_client()&lt;/div&gt;&lt;div&gt;delete_bkng()&lt;/div&gt;&lt;div&gt;delete_client()&lt;/div&gt;&lt;div&gt;search_client()&lt;/div&gt;&lt;div&gt;get_busiest_day()&lt;/div&gt;" style="text;strokeColor=none;fillColor=none;align=left;verticalAlign=top;spacingLeft=4;spacingRight=4;overflow=hidden;rotatable=0;points=[[0,0.5],[1,0.5]];portConstraint=eastwest;whiteSpace=wrap;html=1;" parent="rWbBaB_tXVkeBxF61D8e-21" vertex="1">
          <mxGeometry y="34" width="160" height="146" as="geometry" />
        </mxCell>
        <mxCell id="rWbBaB_tXVkeBxF61D8e-25" value="Calendar" style="swimlane;fontStyle=1;align=center;verticalAlign=top;childLayout=stackLayout;horizontal=1;startSize=26;horizontalStack=0;resizeParent=1;resizeParentMax=0;resizeLast=0;collapsible=1;marginBottom=0;whiteSpace=wrap;html=1;" parent="1" vertex="1">
          <mxGeometry x="150" y="326" width="160" height="100" as="geometry" />
        </mxCell>
        <mxCell id="rWbBaB_tXVkeBxF61D8e-27" value="" style="line;strokeWidth=1;fillColor=none;align=left;verticalAlign=middle;spacingTop=-1;spacingLeft=3;spacingRight=3;rotatable=0;labelPosition=right;points=[];portConstraint=eastwest;strokeColor=inherit;" parent="rWbBaB_tXVkeBxF61D8e-25" vertex="1">
          <mxGeometry y="26" width="160" height="8" as="geometry" />
        </mxCell>
        <mxCell id="rWbBaB_tXVkeBxF61D8e-28" value="calendar_window()&lt;div&gt;update_week()&lt;/div&gt;&lt;div&gt;update_availabilty()&lt;/div&gt;" style="text;strokeColor=none;fillColor=none;align=left;verticalAlign=top;spacingLeft=4;spacingRight=4;overflow=hidden;rotatable=0;points=[[0,0.5],[1,0.5]];portConstraint=eastwest;whiteSpace=wrap;html=1;" parent="rWbBaB_tXVkeBxF61D8e-25" vertex="1">
          <mxGeometry y="34" width="160" height="66" as="geometry" />
        </mxCell>
        <mxCell id="rWbBaB_tXVkeBxF61D8e-29" value="Validation" style="swimlane;fontStyle=1;align=center;verticalAlign=top;childLayout=stackLayout;horizontal=1;startSize=26;horizontalStack=0;resizeParent=1;resizeParentMax=0;resizeLast=0;collapsible=1;marginBottom=0;whiteSpace=wrap;html=1;" parent="1" vertex="1">
          <mxGeometry x="660" y="84" width="160" height="120" as="geometry" />
        </mxCell>
        <mxCell id="rWbBaB_tXVkeBxF61D8e-31" value="" style="line;strokeWidth=1;fillColor=none;align=left;verticalAlign=middle;spacingTop=-1;spacingLeft=3;spacingRight=3;rotatable=0;labelPosition=right;points=[];portConstraint=eastwest;strokeColor=inherit;" parent="rWbBaB_tXVkeBxF61D8e-29" vertex="1">
          <mxGeometry y="26" width="160" height="8" as="geometry" />
        </mxCell>
        <mxCell id="rWbBaB_tXVkeBxF61D8e-32" value="length_check()&lt;div&gt;password_check()&lt;/div&gt;&lt;div&gt;postcode_check()&lt;/div&gt;&lt;div&gt;email_check()&lt;/div&gt;&lt;div&gt;phonenumber_check()&lt;/div&gt;" style="text;strokeColor=none;fillColor=none;align=left;verticalAlign=top;spacingLeft=4;spacingRight=4;overflow=hidden;rotatable=0;points=[[0,0.5],[1,0.5]];portConstraint=eastwest;whiteSpace=wrap;html=1;" parent="rWbBaB_tXVkeBxF61D8e-29" vertex="1">
          <mxGeometry y="34" width="160" height="86" as="geometry" />
        </mxCell>
        <mxCell id="rWbBaB_tXVkeBxF61D8e-33" value="Statistics" style="swimlane;fontStyle=1;align=center;verticalAlign=top;childLayout=stackLayout;horizontal=1;startSize=26;horizontalStack=0;resizeParent=1;resizeParentMax=0;resizeLast=0;collapsible=1;marginBottom=0;whiteSpace=wrap;html=1;" parent="1" vertex="1">
          <mxGeometry x="30" y="170" width="160" height="120" as="geometry" />
        </mxCell>
        <mxCell id="rWbBaB_tXVkeBxF61D8e-35" value="" style="line;strokeWidth=1;fillColor=none;align=left;verticalAlign=middle;spacingTop=-1;spacingLeft=3;spacingRight=3;rotatable=0;labelPosition=right;points=[];portConstraint=eastwest;strokeColor=inherit;" parent="rWbBaB_tXVkeBxF61D8e-33" vertex="1">
          <mxGeometry y="26" width="160" height="8" as="geometry" />
        </mxCell>
        <mxCell id="rWbBaB_tXVkeBxF61D8e-36" value="main_statistics()&lt;div&gt;by_weeks()&lt;/div&gt;&lt;div&gt;by_months()&lt;/div&gt;&lt;div&gt;by_years()&lt;/div&gt;&lt;div&gt;busiest_day()&lt;/div&gt;" style="text;strokeColor=none;fillColor=none;align=left;verticalAlign=top;spacingLeft=4;spacingRight=4;overflow=hidden;rotatable=0;points=[[0,0.5],[1,0.5]];portConstraint=eastwest;whiteSpace=wrap;html=1;" parent="rWbBaB_tXVkeBxF61D8e-33" vertex="1">
          <mxGeometry y="34" width="160" height="86" as="geometry" />
        </mxCell>
        <mxCell id="rWbBaB_tXVkeBxF61D8e-37" value="User accounts db" style="swimlane;fontStyle=1;align=center;verticalAlign=top;childLayout=stackLayout;horizontal=1;startSize=26;horizontalStack=0;resizeParent=1;resizeParentMax=0;resizeLast=0;collapsible=1;marginBottom=0;whiteSpace=wrap;html=1;" parent="1" vertex="1">
          <mxGeometry x="630" y="-215" width="170" height="110" as="geometry" />
        </mxCell>
        <mxCell id="rWbBaB_tXVkeBxF61D8e-39" value="" style="line;strokeWidth=1;fillColor=none;align=left;verticalAlign=middle;spacingTop=-1;spacingLeft=3;spacingRight=3;rotatable=0;labelPosition=right;points=[];portConstraint=eastwest;strokeColor=inherit;" parent="rWbBaB_tXVkeBxF61D8e-37" vertex="1">
          <mxGeometry y="26" width="170" height="8" as="geometry" />
        </mxCell>
        <mxCell id="rWbBaB_tXVkeBxF61D8e-40" value="create()&lt;div&gt;search()&lt;/div&gt;&lt;div&gt;update()&lt;/div&gt;&lt;div&gt;add()&lt;/div&gt;" style="text;strokeColor=none;fillColor=none;align=left;verticalAlign=top;spacingLeft=4;spacingRight=4;overflow=hidden;rotatable=0;points=[[0,0.5],[1,0.5]];portConstraint=eastwest;whiteSpace=wrap;html=1;" parent="rWbBaB_tXVkeBxF61D8e-37" vertex="1">
          <mxGeometry y="34" width="170" height="76" as="geometry" />
        </mxCell>
        <mxCell id="rWbBaB_tXVkeBxF61D8e-41" value="User Main menu" style="swimlane;fontStyle=1;align=center;verticalAlign=top;childLayout=stackLayout;horizontal=1;startSize=26;horizontalStack=0;resizeParent=1;resizeParentMax=0;resizeLast=0;collapsible=1;marginBottom=0;whiteSpace=wrap;html=1;" parent="1" vertex="1">
          <mxGeometry x="480" y="-66" width="160" height="60" as="geometry" />
        </mxCell>
        <mxCell id="rWbBaB_tXVkeBxF61D8e-43" value="" style="line;strokeWidth=1;fillColor=none;align=left;verticalAlign=middle;spacingTop=-1;spacingLeft=3;spacingRight=3;rotatable=0;labelPosition=right;points=[];portConstraint=eastwest;strokeColor=inherit;" parent="rWbBaB_tXVkeBxF61D8e-41" vertex="1">
          <mxGeometry y="26" width="160" height="8" as="geometry" />
        </mxCell>
        <mxCell id="rWbBaB_tXVkeBxF61D8e-44" value="home()" style="text;strokeColor=none;fillColor=none;align=left;verticalAlign=top;spacingLeft=4;spacingRight=4;overflow=hidden;rotatable=0;points=[[0,0.5],[1,0.5]];portConstraint=eastwest;whiteSpace=wrap;html=1;" parent="rWbBaB_tXVkeBxF61D8e-41" vertex="1">
          <mxGeometry y="34" width="160" height="26" as="geometry" />
        </mxCell>
        <mxCell id="rWbBaB_tXVkeBxF61D8e-49" style="rounded=0;orthogonalLoop=1;jettySize=auto;html=1;entryX=0.504;entryY=1.018;entryDx=0;entryDy=0;entryPerimeter=0;elbow=vertical;shape=link;" parent="1" source="rWbBaB_tXVkeBxF61D8e-5" target="rWbBaB_tXVkeBxF61D8e-24" edge="1">
          <mxGeometry relative="1" as="geometry" />
        </mxCell>
        <mxCell id="rWbBaB_tXVkeBxF61D8e-50" style="rounded=0;orthogonalLoop=1;jettySize=auto;html=1;entryX=0.452;entryY=-0.031;entryDx=0;entryDy=0;entryPerimeter=0;elbow=vertical;edgeStyle=orthogonalEdgeStyle;" parent="1" source="rWbBaB_tXVkeBxF61D8e-16" target="rWbBaB_tXVkeBxF61D8e-33" edge="1">
          <mxGeometry relative="1" as="geometry" />
        </mxCell>
        <mxCell id="rWbBaB_tXVkeBxF61D8e-52" style="edgeStyle=orthogonalEdgeStyle;rounded=0;orthogonalLoop=1;jettySize=auto;html=1;elbow=vertical;shape=link;" parent="1" source="rWbBaB_tXVkeBxF61D8e-16" target="rWbBaB_tXVkeBxF61D8e-1" edge="1">
          <mxGeometry relative="1" as="geometry" />
        </mxCell>
        <mxCell id="rWbBaB_tXVkeBxF61D8e-53" style="edgeStyle=orthogonalEdgeStyle;rounded=0;orthogonalLoop=1;jettySize=auto;html=1;entryX=0.073;entryY=-0.031;entryDx=0;entryDy=0;entryPerimeter=0;elbow=vertical;exitX=0.981;exitY=0.889;exitDx=0;exitDy=0;exitPerimeter=0;" parent="1" source="rWbBaB_tXVkeBxF61D8e-16" target="rWbBaB_tXVkeBxF61D8e-21" edge="1">
          <mxGeometry relative="1" as="geometry" />
        </mxCell>
        <mxCell id="rWbBaB_tXVkeBxF61D8e-54" style="edgeStyle=orthogonalEdgeStyle;rounded=0;orthogonalLoop=1;jettySize=auto;html=1;entryX=-0.023;entryY=0.109;entryDx=0;entryDy=0;entryPerimeter=0;" parent="1" target="rWbBaB_tXVkeBxF61D8e-29" edge="1">
          <mxGeometry relative="1" as="geometry">
            <mxPoint x="330" y="9" as="sourcePoint" />
          </mxGeometry>
        </mxCell>
        <mxCell id="rWbBaB_tXVkeBxF61D8e-55" style="edgeStyle=orthogonalEdgeStyle;rounded=0;orthogonalLoop=1;jettySize=auto;html=1;entryX=0.573;entryY=-0.031;entryDx=0;entryDy=0;entryPerimeter=0;elbow=vertical;shape=link;" parent="1" target="rWbBaB_tXVkeBxF61D8e-29" edge="1">
          <mxGeometry relative="1" as="geometry">
            <mxPoint x="640" y="-27" as="sourcePoint" />
          </mxGeometry>
        </mxCell>
        <mxCell id="pApXSgo7IorQgsDPQyDw-1" style="edgeStyle=orthogonalEdgeStyle;rounded=0;orthogonalLoop=1;jettySize=auto;html=1;entryX=0;entryY=0.5;entryDx=0;entryDy=0;" edge="1" parent="1" source="rWbBaB_tXVkeBxF61D8e-12" target="rWbBaB_tXVkeBxF61D8e-40">
          <mxGeometry relative="1" as="geometry" />
        </mxCell>
        <mxCell id="pApXSgo7IorQgsDPQyDw-2" style="edgeStyle=orthogonalEdgeStyle;rounded=0;orthogonalLoop=1;jettySize=auto;html=1;entryX=1.011;entryY=0.39;entryDx=0;entryDy=0;entryPerimeter=0;" edge="1" parent="1" source="rWbBaB_tXVkeBxF61D8e-9" target="rWbBaB_tXVkeBxF61D8e-17">
          <mxGeometry relative="1" as="geometry" />
        </mxCell>
        <mxCell id="pApXSgo7IorQgsDPQyDw-3" style="edgeStyle=orthogonalEdgeStyle;rounded=0;orthogonalLoop=1;jettySize=auto;html=1;entryX=0.446;entryY=0.023;entryDx=0;entryDy=0;entryPerimeter=0;" edge="1" parent="1" source="rWbBaB_tXVkeBxF61D8e-12" target="rWbBaB_tXVkeBxF61D8e-13">
          <mxGeometry relative="1" as="geometry" />
        </mxCell>
        <mxCell id="pApXSgo7IorQgsDPQyDw-4" style="edgeStyle=orthogonalEdgeStyle;rounded=0;orthogonalLoop=1;jettySize=auto;html=1;entryX=0.354;entryY=0.05;entryDx=0;entryDy=0;entryPerimeter=0;" edge="1" parent="1" source="rWbBaB_tXVkeBxF61D8e-12" target="rWbBaB_tXVkeBxF61D8e-41">
          <mxGeometry relative="1" as="geometry" />
        </mxCell>
        <mxCell id="pApXSgo7IorQgsDPQyDw-5" style="rounded=0;orthogonalLoop=1;jettySize=auto;html=1;entryX=0.909;entryY=0.037;entryDx=0;entryDy=0;entryPerimeter=0;shape=link;edgeStyle=elbowEdgeStyle;" edge="1" parent="1" source="rWbBaB_tXVkeBxF61D8e-41" target="rWbBaB_tXVkeBxF61D8e-1">
          <mxGeometry relative="1" as="geometry" />
        </mxCell>
        <mxCell id="pApXSgo7IorQgsDPQyDw-6" style="edgeStyle=orthogonalEdgeStyle;rounded=0;orthogonalLoop=1;jettySize=auto;html=1;entryX=0.616;entryY=0.003;entryDx=0;entryDy=0;entryPerimeter=0;" edge="1" parent="1" source="rWbBaB_tXVkeBxF61D8e-13" target="rWbBaB_tXVkeBxF61D8e-25">
          <mxGeometry relative="1" as="geometry" />
        </mxCell>
        <mxCell id="pApXSgo7IorQgsDPQyDw-7" value="KEY:&lt;div&gt;bkng - booking&lt;/div&gt;" style="text;html=1;align=center;verticalAlign=middle;whiteSpace=wrap;rounded=0;fillColor=#0050ef;fontColor=light-dark(#000000, #121212);strokeColor=#001DBC;fontStyle=1;fontSize=13;" vertex="1" parent="1">
          <mxGeometry x="20" y="490" width="130" height="50" as="geometry" />
        </mxCell>
      </root>
    </mxGraphModel>
  </diagram>
</mxfile>
